<svg width="32" height="32" viewBox="0 0 32 32" xmlns="http://www.w3.org/2000/svg">
  <defs>
    <linearGradient id="bg" x1="0%" y1="0%" x2="100%" y2="100%">
      <stop offset="0%" style="stop-color:#3b82f6;stop-opacity:1" />
      <stop offset="100%" style="stop-color:#1d4ed8;stop-opacity:1" />
    </linearGradient>
    <linearGradient id="accent" x1="0%" y1="0%" x2="100%" y2="100%">
      <stop offset="0%" style="stop-color:#60a5fa;stop-opacity:1" />
      <stop offset="100%" style="stop-color:#3b82f6;stop-opacity:1" />
    </linearGradient>
  </defs>
  
  <!-- Background circle -->
  <circle cx="16" cy="16" r="15" fill="url(#bg)" stroke="#1e40af" stroke-width="1"/>
  
  <!-- Document/Data representation -->
  <rect x="7" y="8" width="12" height="16" rx="2" fill="white" opacity="0.9"/>
  <rect x="8" y="10" width="10" height="1" fill="url(#accent)" opacity="0.7"/>
  <rect x="8" y="12" width="8" height="1" fill="url(#accent)" opacity="0.7"/>
  <rect x="8" y="14" width="10" height="1" fill="url(#accent)" opacity="0.7"/>
  <rect x="8" y="16" width="6" height="1" fill="url(#accent)" opacity="0.7"/>
  
  <!-- AI/Tech symbol - Neural network nodes -->
  <circle cx="22" cy="10" r="2" fill="#fbbf24" opacity="0.9"/>
  <circle cx="26" cy="14" r="1.5" fill="#fbbf24" opacity="0.8"/>
  <circle cx="24" cy="18" r="1.5" fill="#fbbf24" opacity="0.8"/>
  
  <!-- Connection lines -->
  <line x1="22" y1="10" x2="26" y2="14" stroke="#fbbf24" stroke-width="1" opacity="0.6"/>
  <line x1="22" y1="10" x2="24" y2="18" stroke="#fbbf24" stroke-width="1" opacity="0.6"/>
  <line x1="26" y1="14" x2="24" y2="18" stroke="#fbbf24" stroke-width="1" opacity="0.6"/>
  
  <!-- Extraction arrow -->
  <path d="M 19 20 L 22 20 L 21 18 M 22 20 L 21 22" stroke="#10b981" stroke-width="1.5" fill="none" stroke-linecap="round"/>
</svg>